# Blender 3.4.0
# www.blender.org
mtllib Market Stall.mtl
o Market_Box
v -1.141754 0.282777 0.269711
v -1.141754 0.415419 0.269711
v -1.141754 0.282777 -0.269846
v -1.141754 0.507876 -0.269846
v -0.602197 0.282777 0.269711
v -0.602197 0.415419 0.269711
v -0.602197 0.282777 -0.269846
v -0.602197 0.507876 -0.269846
v -1.129477 0.295053 0.257435
v -1.125969 0.415419 0.255465
v -1.129477 0.295053 -0.257570
v -1.127600 0.507876 -0.253978
v -0.614473 0.295053 0.257435
v -0.617982 0.415419 0.255465
v -0.614473 0.295053 -0.257570
v -0.616350 0.507876 -0.253978
v -0.630866 -0.003061 0.286696
v -0.630866 0.428674 0.286696
v -0.630866 -0.003061 0.237147
v -0.630866 0.428674 0.237147
v -0.581317 -0.003061 0.286696
v -0.581317 0.428674 0.286696
v -0.581317 -0.003061 0.237147
v -0.581317 0.428674 0.237147
v -1.113085 -0.003061 0.286696
v -1.113085 0.428674 0.286696
v -1.113085 -0.003061 0.237147
v -1.113085 0.428674 0.237147
v -1.162634 -0.003061 0.286696
v -1.162634 0.428674 0.286696
v -1.162634 -0.003061 0.237147
v -1.162634 0.428674 0.237147
v -0.630866 -0.003061 -0.286831
v -0.630866 0.524701 -0.286831
v -0.630866 -0.003061 -0.237283
v -0.630866 0.524701 -0.237283
v -0.581317 -0.003061 -0.286831
v -0.581317 0.524701 -0.286831
v -0.581317 -0.003061 -0.237283
v -0.581317 0.524701 -0.237283
v -1.113085 -0.003061 -0.286831
v -1.113085 0.524701 -0.286831
v -1.113085 -0.003061 -0.237283
v -1.113085 0.524701 -0.237283
v -1.162634 -0.003061 -0.286831
v -1.162634 0.524701 -0.286831
v -1.162634 -0.003061 -0.237283
v -1.162634 0.524701 -0.237283
v -0.560437 0.282777 0.269711
v -0.560437 0.415419 0.269711
v -0.560437 0.282777 -0.269846
v -0.560437 0.507876 -0.269846
v -0.020880 0.282777 0.269711
v -0.020880 0.415419 0.269711
v -0.020880 0.282777 -0.269846
v -0.020880 0.507876 -0.269846
v -0.548161 0.295053 0.257435
v -0.544652 0.415419 0.255465
v -0.548161 0.295053 -0.257570
v -0.546283 0.507876 -0.253978
v -0.033156 0.295053 0.257435
v -0.036665 0.415419 0.255465
v -0.033156 0.295053 -0.257570
v -0.035034 0.507876 -0.253978
v -0.049549 -0.003061 0.286696
v -0.049549 0.428674 0.286696
v -0.049549 -0.003061 0.237147
v -0.049549 0.428674 0.237147
v -0.000000 -0.003061 0.286696
v -0.000000 0.428674 0.286696
v -0.000000 -0.003061 0.237147
v -0.000000 0.428674 0.237147
v -0.531768 -0.003061 0.286696
v -0.531768 0.428674 0.286696
v -0.531768 -0.003061 0.237147
v -0.531768 0.428674 0.237147
v -0.581317 -0.003061 0.286696
v -0.581317 0.428674 0.286696
v -0.581317 -0.003061 0.237147
v -0.581317 0.428674 0.237147
v -0.049549 -0.003061 -0.286831
v -0.049549 0.524701 -0.286831
v -0.049549 -0.003061 -0.237283
v -0.049549 0.524701 -0.237283
v -0.000000 -0.003061 -0.286831
v -0.000000 0.524701 -0.286831
v -0.000000 -0.003061 -0.237283
v -0.000000 0.524701 -0.237283
v -0.531768 -0.003061 -0.286831
v -0.531768 0.524701 -0.286831
v -0.531768 -0.003061 -0.237283
v -0.531768 0.524701 -0.237283
v -0.581317 -0.003061 -0.286831
v -0.581317 0.524701 -0.286831
v -0.581317 -0.003061 -0.237283
v -0.581317 0.524701 -0.237283
v 0.020880 0.282777 0.269711
v 0.020880 0.415419 0.269711
v 0.020880 0.282777 -0.269846
v 0.020880 0.507876 -0.269846
v 0.560437 0.282777 0.269711
v 0.560437 0.415419 0.269711
v 0.560437 0.282777 -0.269846
v 0.560437 0.507876 -0.269846
v 0.033156 0.295053 0.257435
v 0.036665 0.415419 0.255465
v 0.033156 0.295053 -0.257570
v 0.035033 0.507876 -0.253978
v 0.548160 0.295053 0.257435
v 0.544652 0.415419 0.255465
v 0.548160 0.295053 -0.257570
v 0.546283 0.507876 -0.253978
v 0.531768 -0.003061 0.286696
v 0.531768 0.428674 0.286696
v 0.531768 -0.003061 0.237147
v 0.531768 0.428674 0.237147
v 0.581317 -0.003061 0.286696
v 0.581317 0.428674 0.286696
v 0.581317 -0.003061 0.237147
v 0.581317 0.428674 0.237147
v 0.049549 -0.003061 0.286696
v 0.049549 0.428674 0.286696
v 0.049549 -0.003061 0.237147
v 0.049549 0.428674 0.237147
v -0.000000 -0.003061 0.286696
v -0.000000 0.428674 0.286696
v -0.000000 -0.003061 0.237147
v -0.000000 0.428674 0.237147
v 0.531768 -0.003061 -0.286831
v 0.531768 0.524701 -0.286831
v 0.531768 -0.003061 -0.237283
v 0.531768 0.524701 -0.237283
v 0.581317 -0.003061 -0.286831
v 0.581317 0.524701 -0.286831
v 0.581317 -0.003061 -0.237283
v 0.581317 0.524701 -0.237283
v 0.049549 -0.003061 -0.286831
v 0.049549 0.524701 -0.286831
v 0.049549 -0.003061 -0.237283
v 0.049549 0.524701 -0.237283
v -0.000000 -0.003061 -0.286831
v -0.000000 0.524701 -0.286831
v -0.000000 -0.003061 -0.237283
v -0.000000 0.524701 -0.237283
v 0.602196 0.282777 0.269711
v 0.602196 0.415419 0.269711
v 0.602196 0.282777 -0.269846
v 0.602196 0.507876 -0.269846
v 1.141753 0.282777 0.269711
v 1.141753 0.415419 0.269711
v 1.141753 0.282777 -0.269846
v 1.141753 0.507876 -0.269846
v 0.614473 0.295053 0.257435
v 0.617982 0.415419 0.255465
v 0.614473 0.295053 -0.257570
v 0.616350 0.507876 -0.253978
v 1.129477 0.295053 0.257435
v 1.125968 0.415419 0.255465
v 1.129477 0.295053 -0.257570
v 1.127600 0.507876 -0.253978
v 1.113085 -0.003061 0.286696
v 1.113085 0.428674 0.286696
v 1.113085 -0.003061 0.237147
v 1.113085 0.428674 0.237147
v 1.162633 -0.003061 0.286696
v 1.162633 0.428674 0.286696
v 1.162633 -0.003061 0.237147
v 1.162633 0.428674 0.237147
v 0.630865 -0.003061 0.286696
v 0.630865 0.428674 0.286696
v 0.630865 -0.003061 0.237147
v 0.630865 0.428674 0.237147
v 0.581317 -0.003061 0.286696
v 0.581317 0.428674 0.286696
v 0.581317 -0.003061 0.237147
v 0.581317 0.428674 0.237147
v 1.113085 -0.003061 -0.286831
v 1.113085 0.524701 -0.286831
v 1.113085 -0.003061 -0.237283
v 1.113085 0.524701 -0.237283
v 1.162633 -0.003061 -0.286831
v 1.162633 0.524701 -0.286831
v 1.162633 -0.003061 -0.237283
v 1.162633 0.524701 -0.237283
v 0.630865 -0.003061 -0.286831
v 0.630865 0.524701 -0.286831
v 0.630865 -0.003061 -0.237283
v 0.630865 0.524701 -0.237283
v 0.581317 -0.003061 -0.286831
v 0.581317 0.524701 -0.286831
v 0.581317 -0.003061 -0.237283
v 0.581317 0.524701 -0.237283
vn -1.0000 -0.0000 -0.0000
vn -0.0000 -0.0000 -1.0000
vn 1.0000 -0.0000 -0.0000
vn -0.0000 -0.0000 1.0000
vn -0.0000 -1.0000 -0.0000
vn 0.9999 -0.0161 -0.0030
vn -0.0000 -0.0169 0.9999
vn -0.9999 -0.0161 -0.0030
vn -0.0000 -0.0164 -0.9999
vn -0.0000 1.0000 -0.0000
vn -0.0094 0.9848 0.1736
vn 0.0094 0.9848 0.1736
vt -0.001887 0.482129
vt -0.002046 0.482129
vt -0.002046 -0.001893
vt -0.001887 0.728967
vt -0.002046 0.728967
vt -0.002046 -0.001893
vt 1.002192 0.482129
vt -0.002046 0.482129
vt -0.002046 1.002186
vt 1.002192 0.901024
vt -0.002046 0.901024
vt -0.002046 1.002186
vt -0.001887 0.482129
vt 1.002034 0.482129
vt 1.002034 -0.001893
vt -0.001887 0.728967
vt 1.002034 0.728967
vt 1.002034 -0.001893
vt 1.002034 0.482129
vt 1.002192 0.482129
vt 1.002034 1.002186
vt 1.002034 0.901024
vt 1.002192 0.901024
vt 1.002034 1.002186
vt 0.020959 0.504975
vt 0.020800 0.504975
vt 0.020800 0.020953
vt 0.024624 0.728967
vt 0.027330 0.728967
vt 0.027330 0.024618
vt 0.979347 0.504975
vt 0.020800 0.504975
vt 0.020800 0.979341
vt 0.972663 0.901024
vt 0.024294 0.901024
vt 0.024294 0.972657
vt 0.020959 0.504975
vt 0.979188 0.504975
vt 0.979188 0.020953
vt 0.024624 0.728967
vt 0.972659 0.728967
vt 0.972659 0.024618
vt 0.979188 0.504975
vt 0.979347 0.504975
vt 0.979188 0.979341
vt 0.975694 0.901024
vt 0.972663 0.901024
vt 0.975694 0.972657
vt 0.006846 -0.008216
vt 0.914765 -0.008216
vt 0.914765 0.006846
vt 0.006846 0.734468
vt 0.914765 0.734468
vt 0.914765 0.006846
vt 0.092082 -0.008216
vt 0.914765 -0.008216
vt 0.914765 0.092082
vt 0.092082 0.734468
vt 0.914765 0.734468
vt 0.914765 0.092082
vt 0.006846 -0.008216
vt 1.000000 -0.008216
vt 1.000000 0.006846
vt 0.006846 0.734468
vt 1.000000 0.734468
vt 1.000000 0.006846
vt 1.000000 -0.008216
vt 0.092082 -0.008216
vt 1.000000 0.092082
vt 1.000000 0.734468
vt 0.092082 0.734468
vt 1.000000 0.092082
vt 0.006846 -0.008216
vt 0.085235 -0.008216
vt 0.085235 0.006846
vt 0.006846 0.734468
vt 0.085235 0.734468
vt 0.085235 0.006846
vt 0.092082 -0.008216
vt 0.085235 -0.008216
vt 0.085235 0.092082
vt 0.092082 0.734468
vt 0.085235 0.734468
vt 0.085235 0.092082
vt 0.006846 -0.008216
vt 0.000000 -0.008216
vt 0.000000 0.006846
vt 0.006846 0.734468
vt 0.000000 0.734468
vt 0.000000 0.006846
vt 0.000000 -0.008216
vt 0.092082 -0.008216
vt 0.000000 0.092082
vt 0.000000 0.734468
vt 0.092082 0.734468
vt 0.000000 0.092082
vt 0.993447 -0.008216
vt 0.914765 -0.008216
vt 0.914765 0.993447
vt 0.993447 0.899657
vt 0.914765 0.899657
vt 0.914765 0.993447
vt 0.908212 -0.008216
vt 0.914765 -0.008216
vt 0.914765 0.908212
vt 0.908212 0.899657
vt 0.914765 0.899657
vt 0.914765 0.908212
vt 0.993447 -0.008216
vt 1.000000 -0.008216
vt 1.000000 0.993447
vt 0.993447 0.899657
vt 1.000000 0.899657
vt 1.000000 0.993447
vt 1.000000 -0.008216
vt 0.908212 -0.008216
vt 1.000000 0.908212
vt 1.000000 0.899657
vt 0.908212 0.899657
vt 1.000000 0.908212
vt 0.993447 -0.008216
vt 0.085235 -0.008216
vt 0.085235 0.993447
vt 0.993447 0.899657
vt 0.085235 0.899657
vt 0.085235 0.993447
vt 0.908212 -0.008216
vt 0.085235 -0.008216
vt 0.085235 0.908212
vt 0.908212 0.899657
vt 0.085235 0.899657
vt 0.085235 0.908212
vt 0.993447 -0.008216
vt 0.000000 -0.008216
vt 0.000000 0.993447
vt 0.993447 0.899657
vt 0.000000 0.899657
vt 0.000000 0.993447
vt 0.000000 -0.008216
vt 0.908212 -0.008216
vt 0.000000 0.908212
vt 0.000000 0.899657
vt 0.908212 0.899657
vt 0.000000 0.908212
vt -0.001887 0.482129
vt -0.002046 0.482129
vt -0.002046 -0.001893
vt -0.001887 0.728967
vt -0.002046 0.728967
vt -0.002046 -0.001893
vt 1.002192 0.482129
vt -0.002046 0.482129
vt -0.002046 1.002186
vt 1.002192 0.901024
vt -0.002046 0.901024
vt -0.002046 1.002186
vt -0.001887 0.482129
vt 1.002034 0.482129
vt 1.002034 -0.001893
vt -0.001887 0.728967
vt 1.002034 0.728967
vt 1.002034 -0.001893
vt 1.002034 0.482129
vt 1.002192 0.482129
vt 1.002034 1.002186
vt 1.002034 0.901024
vt 1.002192 0.901024
vt 1.002034 1.002186
vt 0.020959 0.504975
vt 0.020800 0.504975
vt 0.020800 0.020953
vt 0.024624 0.728967
vt 0.027330 0.728967
vt 0.027330 0.024618
vt 0.979347 0.504975
vt 0.020800 0.504975
vt 0.020800 0.979341
vt 0.972663 0.901024
vt 0.024294 0.901024
vt 0.024294 0.972657
vt 0.020959 0.504975
vt 0.979188 0.504975
vt 0.979188 0.020953
vt 0.024624 0.728967
vt 0.972659 0.728967
vt 0.972659 0.024618
vt 0.979188 0.504975
vt 0.979347 0.504975
vt 0.979188 0.979341
vt 0.975694 0.901024
vt 0.972663 0.901024
vt 0.975694 0.972657
vt 0.006846 -0.008216
vt 0.914765 -0.008216
vt 0.914765 0.006846
vt 0.006846 0.734468
vt 0.914765 0.734468
vt 0.914765 0.006846
vt 0.092082 -0.008216
vt 0.914765 -0.008216
vt 0.914765 0.092082
vt 0.092082 0.734468
vt 0.914765 0.734468
vt 0.914765 0.092082
vt 0.006846 -0.008216
vt 1.000000 -0.008216
vt 1.000000 0.006846
vt 0.006846 0.734468
vt 1.000000 0.734468
vt 1.000000 0.006846
vt 1.000000 -0.008216
vt 0.092082 -0.008216
vt 1.000000 0.092082
vt 1.000000 0.734468
vt 0.092082 0.734468
vt 1.000000 0.092082
vt 0.006846 -0.008216
vt 0.085235 -0.008216
vt 0.085235 0.006846
vt 0.006846 0.734468
vt 0.085235 0.734468
vt 0.085235 0.006846
vt 0.092082 -0.008216
vt 0.085235 -0.008216
vt 0.085235 0.092082
vt 0.092082 0.734468
vt 0.085235 0.734468
vt 0.085235 0.092082
vt 0.006846 -0.008216
vt 0.000000 -0.008216
vt 0.000000 0.006846
vt 0.006846 0.734468
vt 0.000000 0.734468
vt 0.000000 0.006846
vt 0.000000 -0.008216
vt 0.092082 -0.008216
vt 0.000000 0.092082
vt 0.000000 0.734468
vt 0.092082 0.734468
vt 0.000000 0.092082
vt 0.993447 -0.008216
vt 0.914765 -0.008216
vt 0.914765 0.993447
vt 0.993447 0.899657
vt 0.914765 0.899657
vt 0.914765 0.993447
vt 0.908212 -0.008216
vt 0.914765 -0.008216
vt 0.914765 0.908212
vt 0.908212 0.899657
vt 0.914765 0.899657
vt 0.914765 0.908212
vt 0.993447 -0.008216
vt 1.000000 -0.008216
vt 1.000000 0.993447
vt 0.993447 0.899657
vt 1.000000 0.899657
vt 1.000000 0.993447
vt 1.000000 -0.008216
vt 0.908212 -0.008216
vt 1.000000 0.908212
vt 1.000000 0.899657
vt 0.908212 0.899657
vt 1.000000 0.908212
vt 0.993447 -0.008216
vt 0.085235 -0.008216
vt 0.085235 0.993447
vt 0.993447 0.899657
vt 0.085235 0.899657
vt 0.085235 0.993447
vt 0.908212 -0.008216
vt 0.085235 -0.008216
vt 0.085235 0.908212
vt 0.908212 0.899657
vt 0.085235 0.899657
vt 0.085235 0.908212
vt 0.993447 -0.008216
vt 0.000000 -0.008216
vt 0.000000 0.993447
vt 0.993447 0.899657
vt 0.000000 0.899657
vt 0.000000 0.993447
vt 0.000000 -0.008216
vt 0.908212 -0.008216
vt 0.000000 0.908212
vt 0.000000 0.899657
vt 0.908212 0.899657
vt 0.000000 0.908212
vt -0.001887 0.482129
vt -0.002046 0.482129
vt -0.002046 -0.001893
vt -0.001887 0.728967
vt -0.002046 0.728967
vt -0.002046 -0.001893
vt 1.002192 0.482129
vt -0.002046 0.482129
vt -0.002046 1.002186
vt 1.002192 0.901024
vt -0.002046 0.901024
vt -0.002046 1.002186
vt -0.001887 0.482129
vt 1.002034 0.482129
vt 1.002034 -0.001893
vt -0.001887 0.728967
vt 1.002034 0.728967
vt 1.002034 -0.001893
vt 1.002034 0.482129
vt 1.002192 0.482129
vt 1.002034 1.002186
vt 1.002034 0.901024
vt 1.002192 0.901024
vt 1.002034 1.002186
vt 0.020959 0.504975
vt 0.020800 0.504975
vt 0.020800 0.020953
vt 0.024624 0.728967
vt 0.027330 0.728967
vt 0.027330 0.024618
vt 0.979347 0.504975
vt 0.020800 0.504975
vt 0.020800 0.979341
vt 0.972663 0.901024
vt 0.024294 0.901024
vt 0.024294 0.972657
vt 0.020959 0.504975
vt 0.979188 0.504975
vt 0.979188 0.020953
vt 0.024624 0.728967
vt 0.972659 0.728967
vt 0.972659 0.024618
vt 0.979188 0.504975
vt 0.979347 0.504975
vt 0.979188 0.979341
vt 0.975694 0.901024
vt 0.972663 0.901024
vt 0.975694 0.972657
vt 0.006846 -0.008216
vt 0.914765 -0.008216
vt 0.914765 0.006846
vt 0.006846 0.734468
vt 0.914765 0.734468
vt 0.914765 0.006846
vt 0.092082 -0.008216
vt 0.914765 -0.008216
vt 0.914765 0.092082
vt 0.092082 0.734468
vt 0.914765 0.734468
vt 0.914765 0.092082
vt 0.006846 -0.008216
vt 1.000000 -0.008216
vt 1.000000 0.006846
vt 0.006846 0.734468
vt 1.000000 0.734468
vt 1.000000 0.006846
vt 1.000000 -0.008216
vt 0.092082 -0.008216
vt 1.000000 0.092082
vt 1.000000 0.734468
vt 0.092082 0.734468
vt 1.000000 0.092082
vt 0.006846 -0.008216
vt 0.085235 -0.008216
vt 0.085235 0.006846
vt 0.006846 0.734468
vt 0.085235 0.734468
vt 0.085235 0.006846
vt 0.092082 -0.008216
vt 0.085235 -0.008216
vt 0.085235 0.092082
vt 0.092082 0.734468
vt 0.085235 0.734468
vt 0.085235 0.092082
vt 0.006846 -0.008216
vt 0.000000 -0.008216
vt 0.000000 0.006846
vt 0.006846 0.734468
vt 0.000000 0.734468
vt 0.000000 0.006846
vt 0.000000 -0.008216
vt 0.092082 -0.008216
vt 0.000000 0.092082
vt 0.000000 0.734468
vt 0.092082 0.734468
vt 0.000000 0.092082
vt 0.993447 -0.008216
vt 0.914765 -0.008216
vt 0.914765 0.993447
vt 0.993447 0.899657
vt 0.914765 0.899657
vt 0.914765 0.993447
vt 0.908212 -0.008216
vt 0.914765 -0.008216
vt 0.914765 0.908212
vt 0.908212 0.899657
vt 0.914765 0.899657
vt 0.914765 0.908212
vt 0.993447 -0.008216
vt 1.000000 -0.008216
vt 1.000000 0.993447
vt 0.993447 0.899657
vt 1.000000 0.899657
vt 1.000000 0.993447
vt 1.000000 -0.008216
vt 0.908212 -0.008216
vt 1.000000 0.908212
vt 1.000000 0.899657
vt 0.908212 0.899657
vt 1.000000 0.908212
vt 0.993447 -0.008216
vt 0.085235 -0.008216
vt 0.085235 0.993447
vt 0.993447 0.899657
vt 0.085235 0.899657
vt 0.085235 0.993447
vt 0.908212 -0.008216
vt 0.085235 -0.008216
vt 0.085235 0.908212
vt 0.908212 0.899657
vt 0.085235 0.899657
vt 0.085235 0.908212
vt 0.993447 -0.008216
vt 0.000000 -0.008216
vt 0.000000 0.993447
vt 0.993447 0.899657
vt 0.000000 0.899657
vt 0.000000 0.993447
vt 0.000000 -0.008216
vt 0.908212 -0.008216
vt 0.000000 0.908212
vt 0.000000 0.899657
vt 0.908212 0.899657
vt 0.000000 0.908212
vt -0.001887 0.482129
vt -0.002046 0.482129
vt -0.002046 -0.001893
vt -0.001887 0.728967
vt -0.002046 0.728967
vt -0.002046 -0.001893
vt 1.002192 0.482129
vt -0.002046 0.482129
vt -0.002046 1.002186
vt 1.002192 0.901024
vt -0.002046 0.901024
vt -0.002046 1.002186
vt -0.001887 0.482129
vt 1.002034 0.482129
vt 1.002034 -0.001893
vt -0.001887 0.728967
vt 1.002034 0.728967
vt 1.002034 -0.001893
vt 1.002034 0.482129
vt 1.002192 0.482129
vt 1.002034 1.002186
vt 1.002034 0.901024
vt 1.002192 0.901024
vt 1.002034 1.002186
vt 0.020959 0.504975
vt 0.020800 0.504975
vt 0.020800 0.020953
vt 0.024624 0.728967
vt 0.027330 0.728967
vt 0.027330 0.024618
vt 0.979347 0.504975
vt 0.020800 0.504975
vt 0.020800 0.979341
vt 0.972663 0.901024
vt 0.024294 0.901024
vt 0.024294 0.972657
vt 0.020959 0.504975
vt 0.979188 0.504975
vt 0.979188 0.020953
vt 0.024624 0.728967
vt 0.972659 0.728967
vt 0.972659 0.024618
vt 0.979188 0.504975
vt 0.979347 0.504975
vt 0.979188 0.979341
vt 0.975694 0.901024
vt 0.972663 0.901024
vt 0.975694 0.972657
vt 0.006846 -0.008216
vt 0.914765 -0.008216
vt 0.914765 0.006846
vt 0.006846 0.734468
vt 0.914765 0.734468
vt 0.914765 0.006846
vt 0.092082 -0.008216
vt 0.914765 -0.008216
vt 0.914765 0.092082
vt 0.092082 0.734468
vt 0.914765 0.734468
vt 0.914765 0.092082
vt 0.006846 -0.008216
vt 1.000000 -0.008216
vt 1.000000 0.006846
vt 0.006846 0.734468
vt 1.000000 0.734468
vt 1.000000 0.006846
vt 1.000000 -0.008216
vt 0.092082 -0.008216
vt 1.000000 0.092082
vt 1.000000 0.734468
vt 0.092082 0.734468
vt 1.000000 0.092082
vt 0.006846 -0.008216
vt 0.085235 -0.008216
vt 0.085235 0.006846
vt 0.006846 0.734468
vt 0.085235 0.734468
vt 0.085235 0.006846
vt 0.092082 -0.008216
vt 0.085235 -0.008216
vt 0.085235 0.092082
vt 0.092082 0.734468
vt 0.085235 0.734468
vt 0.085235 0.092082
vt 0.006846 -0.008216
vt 0.000000 -0.008216
vt 0.000000 0.006846
vt 0.006846 0.734468
vt 0.000000 0.734468
vt 0.000000 0.006846
vt 0.000000 -0.008216
vt 0.092082 -0.008216
vt 0.000000 0.092082
vt 0.000000 0.734468
vt 0.092082 0.734468
vt 0.000000 0.092082
vt 0.993447 -0.008216
vt 0.914765 -0.008216
vt 0.914765 0.993447
vt 0.993447 0.899657
vt 0.914765 0.899657
vt 0.914765 0.993447
vt 0.908212 -0.008216
vt 0.914765 -0.008216
vt 0.914765 0.908212
vt 0.908212 0.899657
vt 0.914765 0.899657
vt 0.914765 0.908212
vt 0.993447 -0.008216
vt 1.000000 -0.008216
vt 1.000000 0.993447
vt 0.993447 0.899657
vt 1.000000 0.899657
vt 1.000000 0.993447
vt 1.000000 -0.008216
vt 0.908212 -0.008216
vt 1.000000 0.908212
vt 1.000000 0.899657
vt 0.908212 0.899657
vt 1.000000 0.908212
vt 0.993447 -0.008216
vt 0.085235 -0.008216
vt 0.085235 0.993447
vt 0.993447 0.899657
vt 0.085235 0.899657
vt 0.085235 0.993447
vt 0.908212 -0.008216
vt 0.085235 -0.008216
vt 0.085235 0.908212
vt 0.908212 0.899657
vt 0.085235 0.899657
vt 0.085235 0.908212
vt 0.993447 -0.008216
vt 0.000000 -0.008216
vt 0.000000 0.993447
vt 0.993447 0.899657
vt 0.000000 0.899657
vt 0.000000 0.993447
vt 0.000000 -0.008216
vt 0.908212 -0.008216
vt 0.000000 0.908212
vt 0.000000 0.899657
vt 0.908212 0.899657
vt 0.000000 0.908212
s 0
g Market_Box_ambientCG/Wood006/1K-PNG
usemtl ambientCG/Wood006/1K-PNG
f 17/49/1 18/52/1 20/58/1 19/55/1
f 19/56/2 20/59/2 24/70/2 23/67/2
f 23/68/3 24/71/3 22/64/3 21/61/3
f 21/62/4 22/65/4 18/53/4 17/50/4
f 19/57/5 23/69/5 21/63/5 17/51/5
f 24/72/10 20/60/10 18/54/10 22/66/10
f 25/73/3 27/79/3 28/82/3 26/76/3
f 27/80/2 31/91/2 32/94/2 28/83/2
f 31/92/1 29/85/1 30/88/1 32/95/1
f 29/86/4 25/74/4 26/77/4 30/89/4
f 27/81/5 25/75/5 29/87/5 31/93/5
f 32/96/10 30/90/10 26/78/10 28/84/10
f 33/97/1 35/103/1 36/106/1 34/100/1
f 35/104/4 39/115/4 40/118/4 36/107/4
f 39/116/3 37/109/3 38/112/3 40/119/3
f 37/110/2 33/98/2 34/101/2 38/113/2
f 35/105/5 33/99/5 37/111/5 39/117/5
f 40/120/10 38/114/10 34/102/10 36/108/10
f 41/121/3 42/124/3 44/130/3 43/127/3
f 43/128/4 44/131/4 48/142/4 47/139/4
f 47/140/1 48/143/1 46/136/1 45/133/1
f 45/134/2 46/137/2 42/125/2 41/122/2
f 43/129/5 47/141/5 45/135/5 41/123/5
f 48/144/10 44/132/10 42/126/10 46/138/10
f 65/193/1 66/196/1 68/202/1 67/199/1
f 67/200/2 68/203/2 72/214/2 71/211/2
f 71/212/3 72/215/3 70/208/3 69/205/3
f 69/206/4 70/209/4 66/197/4 65/194/4
f 67/201/5 71/213/5 69/207/5 65/195/5
f 72/216/10 68/204/10 66/198/10 70/210/10
f 73/217/3 75/223/3 76/226/3 74/220/3
f 75/224/2 79/235/2 80/238/2 76/227/2
f 79/236/1 77/229/1 78/232/1 80/239/1
f 77/230/4 73/218/4 74/221/4 78/233/4
f 75/225/5 73/219/5 77/231/5 79/237/5
f 80/240/10 78/234/10 74/222/10 76/228/10
f 81/241/1 83/247/1 84/250/1 82/244/1
f 83/248/4 87/259/4 88/262/4 84/251/4
f 87/260/3 85/253/3 86/256/3 88/263/3
f 85/254/2 81/242/2 82/245/2 86/257/2
f 83/249/5 81/243/5 85/255/5 87/261/5
f 88/264/10 86/258/10 82/246/10 84/252/10
f 89/265/3 90/268/3 92/274/3 91/271/3
f 91/272/4 92/275/4 96/286/4 95/283/4
f 95/284/1 96/287/1 94/280/1 93/277/1
f 93/278/2 94/281/2 90/269/2 89/266/2
f 91/273/5 95/285/5 93/279/5 89/267/5
f 96/288/10 92/276/10 90/270/10 94/282/10
f 113/337/1 114/340/1 116/346/1 115/343/1
f 115/344/2 116/347/2 120/358/2 119/355/2
f 119/356/3 120/359/3 118/352/3 117/349/3
f 117/350/4 118/353/4 114/341/4 113/338/4
f 115/345/5 119/357/5 117/351/5 113/339/5
f 120/360/10 116/348/10 114/342/10 118/354/10
f 121/361/3 123/367/3 124/370/3 122/364/3
f 123/368/2 127/379/2 128/382/2 124/371/2
f 127/380/1 125/373/1 126/376/1 128/383/1
f 125/374/4 121/362/4 122/365/4 126/377/4
f 123/369/5 121/363/5 125/375/5 127/381/5
f 128/384/10 126/378/10 122/366/10 124/372/10
f 129/385/1 131/391/1 132/394/1 130/388/1
f 131/392/4 135/403/4 136/406/4 132/395/4
f 135/404/3 133/397/3 134/400/3 136/407/3
f 133/398/2 129/386/2 130/389/2 134/401/2
f 131/393/5 129/387/5 133/399/5 135/405/5
f 136/408/10 134/402/10 130/390/10 132/396/10
f 137/409/3 138/412/3 140/418/3 139/415/3
f 139/416/4 140/419/4 144/430/4 143/427/4
f 143/428/1 144/431/1 142/424/1 141/421/1
f 141/422/2 142/425/2 138/413/2 137/410/2
f 139/417/5 143/429/5 141/423/5 137/411/5
f 144/432/10 140/420/10 138/414/10 142/426/10
f 161/481/1 162/484/1 164/490/1 163/487/1
f 163/488/2 164/491/2 168/502/2 167/499/2
f 167/500/3 168/503/3 166/496/3 165/493/3
f 165/494/4 166/497/4 162/485/4 161/482/4
f 163/489/5 167/501/5 165/495/5 161/483/5
f 168/504/10 164/492/10 162/486/10 166/498/10
f 169/505/3 171/511/3 172/514/3 170/508/3
f 171/512/2 175/523/2 176/526/2 172/515/2
f 175/524/1 173/517/1 174/520/1 176/527/1
f 173/518/4 169/506/4 170/509/4 174/521/4
f 171/513/5 169/507/5 173/519/5 175/525/5
f 176/528/10 174/522/10 170/510/10 172/516/10
f 177/529/1 179/535/1 180/538/1 178/532/1
f 179/536/4 183/547/4 184/550/4 180/539/4
f 183/548/3 181/541/3 182/544/3 184/551/3
f 181/542/2 177/530/2 178/533/2 182/545/2
f 179/537/5 177/531/5 181/543/5 183/549/5
f 184/552/10 182/546/10 178/534/10 180/540/10
f 185/553/3 186/556/3 188/562/3 187/559/3
f 187/560/4 188/563/4 192/574/4 191/571/4
f 191/572/1 192/575/1 190/568/1 189/565/1
f 189/566/2 190/569/2 186/557/2 185/554/2
f 187/561/5 191/573/5 189/567/5 185/555/5
f 192/576/10 188/564/10 186/558/10 190/570/10
g Market_Box_ambientCG/Planks027C/1K-PNG
usemtl ambientCG/Planks027C/1K-PNG
f 1/1/1 2/4/1 4/10/1 3/7/1
f 3/8/2 4/11/2 8/22/2 7/19/2
f 7/20/3 8/23/3 6/16/3 5/13/3
f 5/14/4 6/17/4 2/5/4 1/2/4
f 3/9/5 7/21/5 5/15/5 1/3/5
f 9/25/6 11/31/6 12/34/6 10/28/6
f 11/32/7 15/43/7 16/46/7 12/35/7
f 15/44/8 13/37/8 14/40/8 16/47/8
f 13/38/9 9/26/9 10/29/9 14/41/9
f 11/33/10 9/27/10 13/39/10 15/45/10
f 4/12/11 2/6/11 10/30/11 12/36/11
f 8/24/10 4/12/10 12/36/10 16/48/10
f 6/18/12 8/24/12 16/48/12 14/42/12
f 2/6/10 6/18/10 14/42/10 10/30/10
f 49/145/1 50/148/1 52/154/1 51/151/1
f 51/152/2 52/155/2 56/166/2 55/163/2
f 55/164/3 56/167/3 54/160/3 53/157/3
f 53/158/4 54/161/4 50/149/4 49/146/4
f 51/153/5 55/165/5 53/159/5 49/147/5
f 57/169/6 59/175/6 60/178/6 58/172/6
f 59/176/7 63/187/7 64/190/7 60/179/7
f 63/188/8 61/181/8 62/184/8 64/191/8
f 61/182/9 57/170/9 58/173/9 62/185/9
f 59/177/10 57/171/10 61/183/10 63/189/10
f 52/156/11 50/150/11 58/174/11 60/180/11
f 56/168/10 52/156/10 60/180/10 64/192/10
f 54/162/12 56/168/12 64/192/12 62/186/12
f 50/150/10 54/162/10 62/186/10 58/174/10
f 97/289/1 98/292/1 100/298/1 99/295/1
f 99/296/2 100/299/2 104/310/2 103/307/2
f 103/308/3 104/311/3 102/304/3 101/301/3
f 101/302/4 102/305/4 98/293/4 97/290/4
f 99/297/5 103/309/5 101/303/5 97/291/5
f 105/313/6 107/319/6 108/322/6 106/316/6
f 107/320/7 111/331/7 112/334/7 108/323/7
f 111/332/8 109/325/8 110/328/8 112/335/8
f 109/326/9 105/314/9 106/317/9 110/329/9
f 107/321/10 105/315/10 109/327/10 111/333/10
f 100/300/11 98/294/11 106/318/11 108/324/11
f 104/312/10 100/300/10 108/324/10 112/336/10
f 102/306/12 104/312/12 112/336/12 110/330/12
f 98/294/10 102/306/10 110/330/10 106/318/10
f 145/433/1 146/436/1 148/442/1 147/439/1
f 147/440/2 148/443/2 152/454/2 151/451/2
f 151/452/3 152/455/3 150/448/3 149/445/3
f 149/446/4 150/449/4 146/437/4 145/434/4
f 147/441/5 151/453/5 149/447/5 145/435/5
f 153/457/6 155/463/6 156/466/6 154/460/6
f 155/464/7 159/475/7 160/478/7 156/467/7
f 159/476/8 157/469/8 158/472/8 160/479/8
f 157/470/9 153/458/9 154/461/9 158/473/9
f 155/465/10 153/459/10 157/471/10 159/477/10
f 148/444/11 146/438/11 154/462/11 156/468/11
f 152/456/10 148/444/10 156/468/10 160/480/10
f 150/450/12 152/456/12 160/480/12 158/474/12
f 146/438/10 150/450/10 158/474/10 154/462/10
